<svg height="300" viewBox="0 0 59.227 59.227" width="300" xmlns="http://www.w3.org/2000/svg"><path d="m51.586 10.029a1.487 1.487 0 0 0 -1.449-.607c-.021-.005-.042-.014-.063-.017l-22.605-3.318a1.492 1.492 0 0 0 -.734.076l-18.105 6.636-.023.011c-.019.008-.037.02-.057.027a1.553 1.553 0 0 0 -.602.47c-.004.006-.01.009-.014.015l-7.645 10.458a1.504 1.504 0 0 0 -.202 1.391c.167.469.556.823 1.038.947l6.634 1.713v16.401c0 .659.431 1.242 1.062 1.435l24.29 7.422c.008.004.017.001.025.005.13.036.266.059.402.06l.011.002h.001a1.5 1.5 0 0 0 .423-.067c.044-.014.085-.033.13-.052.059-.022.117-.038.175-.068l17.43-9.673a1.5 1.5 0 0 0 .772-1.312v-16.398l5.896-2.83a1.502 1.502 0 0 0 .579-2.214zm-24.176-.918 17.644 2.59-11.704 5.442-18.534-3.415zm-17.609 6.743 21.237 3.914-6.242 9.364-20.78-5.365zm.958 27.268v-14.517l14.318 3.697a1.5 1.5 0 0 0 1.623-.62l5.349-8.023v25.968zm38.72-2.022-14.431 8.007v-23.693l2.635 5.599a1.5 1.5 0 0 0 2.005.714l9.789-4.698zm-9.724-12.732-4.207-8.938 14.302-6.65 5.634 8.037z" fill="#ffda44"/></svg>