<svg aria-hidden="true" data-prefix="fas" data-icon="map-marked-alt" class="svg-inline--fa fa-map-marked-alt fa-w-18" xmlns="http://www.w3.org/2000/svg" viewBox="0 0 576 512"><path fill="currentColor" d="M288 0c-69.59 0-126 56.41-126 126 0 56.26 82.35 158.8 113.9 196.02a15.77 15.77 0 0 0 24.2 0C331.65 284.8 414 182.26 414 126 414 56.41 357.59 0 288 0zm0 168a42 42 0 1 1-.01-83.99A42 42 0 0 1 288 168zM20.12 215.95A32 32 0 0 0 0 245.66v250.32a16 16 0 0 0 21.94 14.86L160 448V214.92c-8.84-15.98-16.07-31.54-21.25-46.42L20.12 215.95zM288 359.67a47.78 47.78 0 0 1-36.51-16.96c-19.66-23.2-40.57-49.62-59.49-76.72v182l192 64V266c-18.92 27.09-39.82 53.52-59.49 76.72A47.8 47.8 0 0 1 288 359.67zm266.06-198.51L416 224v288l139.88-55.95A32 32 0 0 0 576 426.34V176.02a16 16 0 0 0-21.94-14.86z"/></svg>
